<?xml version="1.0" encoding="UTF-8" standalone="no" ?>
<!DOCTYPE svg PUBLIC "-//W3C//DTD SVG 1.1//EN" "http://www.w3.org/Graphics/SVG/1.1/DTD/svg11.dtd">
<svg xmlns="http://www.w3.org/2000/svg" xmlns:xlink="http://www.w3.org/1999/xlink" version="1.1" width="1080" height="1080" viewBox="0 0 1080 1080" xml:space="preserve">
  <g transform="matrix(1 0 0 1 540 540)" id="81403548-c5b0-422c-8b39-28ca1de28430">
    <rect style="stroke: none; stroke-width: 1; stroke-dasharray: none; stroke-linecap: butt; stroke-dashoffset: 0; stroke-linejoin: miter; stroke-miterlimit: 4; fill: rgb(255,255,255); fill-rule: nonzero; opacity: 1; visibility: hidden;" vector-effect="non-scaling-stroke" x="-540" y="-540" rx="0" ry="0" width="1080" height="1080" />
  </g>
  <g transform="matrix(1 0 0 1 540 540)" id="0d777a45-6711-476c-9170-91e85dfd46cd"></g>
  <g transform="matrix(1 0 0 1 540 540)">
    <g style="" vector-effect="non-scaling-stroke">
      <g transform="matrix(1 0 0 1 -0.02 0)">
        <circle style="stroke: none; stroke-width: 1; stroke-dasharray: none; stroke-linecap: butt; stroke-dashoffset: 0; stroke-linejoin: miter; stroke-miterlimit: 4; fill: rgb(255,206,82); fill-rule: nonzero; opacity: 1;" vector-effect="non-scaling-stroke" cx="0" cy="0" r="23" />
      </g>
      <g transform="matrix(1 0 0 1 9.71 -6.55)">
        <path style="stroke: none; stroke-width: 1; stroke-dasharray: none; stroke-linecap: butt; stroke-dashoffset: 0; stroke-linejoin: miter; stroke-miterlimit: 4; fill: rgb(39,57,65); fill-rule: nonzero; opacity: 1;" vector-effect="non-scaling-stroke" transform=" translate(-33.72, -17.45)" d="M 37.553 20.9 C 35.764 20 33.717 20 30 20 C 29.447715250169207 20 29 19.552284749830793 29 19 C 29 16.735 32.568 14 37 14 L 37 16 C 35.004399764676755 15.94933150935682 33.06520190799503 16.66503472274738 31.581 18 C 34.638999999999996 18.018 36.544 18.151 38.447 19.1 Z" stroke-linecap="round" />
      </g>
      <g transform="matrix(1 0 0 1 -9.74 -6.55)">
        <path style="stroke: none; stroke-width: 1; stroke-dasharray: none; stroke-linecap: butt; stroke-dashoffset: 0; stroke-linejoin: miter; stroke-miterlimit: 4; fill: rgb(39,57,65); fill-rule: nonzero; opacity: 1;" vector-effect="non-scaling-stroke" transform=" translate(-14.28, -17.45)" d="M 10.447 20.9 L 9.552999999999999 19.11 C 11.453 18.159 13.360999999999999 18.026 16.418999999999997 18.009999999999998 C 14.936328710390976 16.67140784356308 12.99695896218471 15.952062356592313 11 16 L 11 14 C 15.432 14 19 16.735 19 19 C 19 19.552284749830793 18.552284749830793 20 18 20 C 14.283 20 12.236 20 10.447 20.9 Z" stroke-linecap="round" />
      </g>
      <g transform="matrix(1 0 0 1 -0.02 8.5)">
        <path style="stroke: none; stroke-width: 1; stroke-dasharray: none; stroke-linecap: butt; stroke-dashoffset: 0; stroke-linejoin: miter; stroke-miterlimit: 4; fill: rgb(174,45,76); fill-rule: nonzero; opacity: 1;" vector-effect="non-scaling-stroke" transform=" translate(-24, -32.5)" d="M 35.2 26 L 38 26 C 38 34.36 31.47 39 24 39 C 20.437561415426067 39.08198430434516 16.962694882596406 37.89060149308928 14.199999999999996 35.64 C 11.425809717642663 33.21865710560827 9.88426281304892 29.68043992458835 10 26.000000000000007 L 12.8 26 C 12.8 29.87 17.810000000000002 33 24 33 C 30.189999999999998 33 35.2 29.87 35.2 26 Z" stroke-linecap="round" />
      </g>
      <g transform="matrix(1 0 0 1 -0.02 5.5)">
        <path style="stroke: none; stroke-width: 1; stroke-dasharray: none; stroke-linecap: butt; stroke-dashoffset: 0; stroke-linejoin: miter; stroke-miterlimit: 4; fill: rgb(246,250,253); fill-rule: nonzero; opacity: 1;" vector-effect="non-scaling-stroke" transform=" translate(-24, -29.5)" d="M 12.8 26 L 35.2 26 C 35.2 29.87 30.190000000000005 33 24.000000000000004 33 C 17.810000000000002 33 12.8 29.87 12.8 26 Z" stroke-linecap="round" />
      </g>
      <g transform="matrix(1 0 0 1 -0.02 -11.96)">
        <path style="stroke: none; stroke-width: 1; stroke-dasharray: none; stroke-linecap: butt; stroke-dashoffset: 0; stroke-linejoin: miter; stroke-miterlimit: 4; fill: rgb(255,227,105); fill-rule: nonzero; opacity: 1;" vector-effect="non-scaling-stroke" transform=" translate(-24, -12.04)" d="M 24 4 C 36.15 4 46 12.507 46 23 L 46.975 23 C 46.4023312868921 10.727639518870866 36.28571451864941 1.072089082119554 24 1.072089082119554 C 11.714285481350593 1.072089082119554 1.5976687131079004 10.727639518870872 1.0249999999999986 23.000000000000004 L 2 23 C 2 12.507 11.85 4 24 4 Z" stroke-linecap="round" />
      </g>
      <g transform="matrix(1 0 0 1 -0.02 11)">
        <path style="stroke: none; stroke-width: 1; stroke-dasharray: none; stroke-linecap: butt; stroke-dashoffset: 0; stroke-linejoin: miter; stroke-miterlimit: 4; fill: rgb(255,179,43); fill-rule: nonzero; opacity: 1;" vector-effect="non-scaling-stroke" transform=" translate(-24, -35)" d="M 46 23 C 46 33.493 36.15 42 24 42 C 11.850000000000001 42 2 33.493 2 23 L 1.025 23 C 1.011 23.332 0.9999999999999999 23.665 0.9999999999999999 24 C 0.9999999999999999 36.70254924610825 11.29745075389175 47 24 47 C 36.70254924610825 47 47 36.70254924610825 47 24 C 47 23.665 46.989 23.332 46.975 23 Z" stroke-linecap="round" />
      </g>
      <g transform="matrix(0.71 -0.71 0.71 0.71 12.98 -15)">
        <ellipse style="stroke: none; stroke-width: 1; stroke-dasharray: none; stroke-linecap: butt; stroke-dashoffset: 0; stroke-linejoin: miter; stroke-miterlimit: 4; fill: rgb(246,250,253); fill-rule: nonzero; opacity: 1;" vector-effect="non-scaling-stroke" cx="0" cy="0" rx="0.825" ry="1.148" />
      </g>
      <g transform="matrix(0.71 -0.71 0.71 0.71 6.73 -19.5)">
        <ellipse style="stroke: none; stroke-width: 1; stroke-dasharray: none; stroke-linecap: butt; stroke-dashoffset: 0; stroke-linejoin: miter; stroke-miterlimit: 4; fill: rgb(246,250,253); fill-rule: nonzero; opacity: 1;" vector-effect="non-scaling-stroke" cx="0" cy="0" rx="0.413" ry="0.574" />
      </g>
      <g transform="matrix(0.71 -0.71 0.71 0.71 9.98 -17)">
        <ellipse style="stroke: none; stroke-width: 1; stroke-dasharray: none; stroke-linecap: butt; stroke-dashoffset: 0; stroke-linejoin: miter; stroke-miterlimit: 4; fill: rgb(246,250,253); fill-rule: nonzero; opacity: 1;" vector-effect="non-scaling-stroke" cx="0" cy="0" rx="1.65" ry="2.297" />
      </g>
      <g transform="matrix(1 0 0 1 -0.02 6.5)">
        <path style="stroke: none; stroke-width: 1; stroke-dasharray: none; stroke-linecap: butt; stroke-dashoffset: 0; stroke-linejoin: miter; stroke-miterlimit: 4; fill: rgb(138,41,61); fill-rule: nonzero; opacity: 1;" vector-effect="non-scaling-stroke" transform=" translate(-24, -30.5)" d="M 35.2 26 C 35.2 29.87 30.190000000000005 33 24.000000000000004 33 C 17.810000000000002 33 12.800000000000004 29.87 12.800000000000004 26 L 12 26 C 12 30.976 17.368000000000002 35 24 35 C 30.631999999999998 35 36 30.976 36 26 Z" stroke-linecap="round" />
      </g>
      <g transform="matrix(1 0 0 1 -0.02 3)">
        <path style="stroke: none; stroke-width: 1; stroke-dasharray: none; stroke-linecap: butt; stroke-dashoffset: 0; stroke-linejoin: miter; stroke-miterlimit: 4; fill: rgb(237,237,237); fill-rule: nonzero; opacity: 1;" vector-effect="non-scaling-stroke" transform=" translate(-24, -27)" d="M 35.2 26 L 12.8 26 C 12.8043279002083 26.6934073566443 12.96461980087275 27.376954907452195 13.269000000000002 28.000000000000004 L 34.731 28 C 35.03538019912725 27.376954907452195 35.19567209979171 26.6934073566443 35.2 26 Z" stroke-linecap="round" />
      </g>
      <g transform="matrix(1 0 0 1 18.98 0)">
        <path style="stroke: none; stroke-width: 1; stroke-dasharray: none; stroke-linecap: butt; stroke-dashoffset: 0; stroke-linejoin: miter; stroke-miterlimit: 4; fill: rgb(59,197,246); fill-rule: nonzero; opacity: 1;" vector-effect="non-scaling-stroke" transform=" translate(-43, -24)" d="M 46.044 22.429 C 47.31839706023455 23.703397060234554 47.31839706023455 25.76960293976544 46.044 27.043999999999997 C 44.76960293976544 28.318397060234552 42.70339706023456 28.318397060234556 41.429 27.044 C 40.153999999999996 25.769999999999996 38.544 20.697999999999997 39.120999999999995 20.120999999999995 C 39.69799999999999 19.543999999999993 44.77 21.154 46.044 22.429 Z" stroke-linecap="round" />
      </g>
      <g transform="matrix(1 0 0 1 -19.02 0)">
        <path style="stroke: none; stroke-width: 1; stroke-dasharray: none; stroke-linecap: butt; stroke-dashoffset: 0; stroke-linejoin: miter; stroke-miterlimit: 4; fill: rgb(59,197,246); fill-rule: nonzero; opacity: 1;" vector-effect="non-scaling-stroke" transform=" translate(-5, -24)" d="M 1.956 22.429 C 0.6816029397654453 23.703397060234554 0.681602939765446 25.769602939765445 1.9560000000000022 27.043999999999997 C 3.2303970602345586 28.318397060234552 5.296602939765446 28.318397060234552 6.571 27.043999999999997 C 7.846 25.77 9.456 20.7 8.879 20.121 C 8.302 19.541999999999998 3.23 21.154 1.956 22.429 Z" stroke-linecap="round" />
      </g>
      <g transform="matrix(1 0 0 1 19 0.02)">
        <path style="stroke: none; stroke-width: 1; stroke-dasharray: none; stroke-linecap: butt; stroke-dashoffset: 0; stroke-linejoin: miter; stroke-miterlimit: 4; fill: rgb(0,163,225); fill-rule: nonzero; opacity: 1;" vector-effect="non-scaling-stroke" transform=" translate(-43.01, -24.02)" d="M 46.044 22.428 C 44.924 21.308 40.870999999999995 19.928 39.515 20.004 C 41.23007544361674 20.20630368428274 42.86825923212535 20.83058639059988 44.283 21.820999999999998 C 45.2390049019571 22.777004901957106 45.2390049019571 24.3269950980429 44.283 25.283 C 43.32699509804289 26.239004901957106 41.7770049019571 26.239004901957106 40.821 25.283 C 39.82935059865848 23.868548900130133 39.203701234965024 22.23038516257364 39 20.515 C 38.925 21.87 40.3 25.923000000000002 41.425 27.044 C 42.24544121362913 27.88859870409787 43.45719117143098 28.225833204945886 44.59599311466828 27.926499127260143 C 45.734795057905586 27.627165049574405 46.624098801461024 26.73766860748299 46.9231861378713 25.59880183687984 C 47.222273474281565 24.459935066276692 46.88477644209117 23.24825820256357 46.04 22.428 Z" stroke-linecap="round" />
      </g>
      <g transform="matrix(1 0 0 1 -19 -0.02)">
        <path style="stroke: none; stroke-width: 1; stroke-dasharray: none; stroke-linecap: butt; stroke-dashoffset: 0; stroke-linejoin: miter; stroke-miterlimit: 4; fill: rgb(0,163,225); fill-rule: nonzero; opacity: 1;" vector-effect="non-scaling-stroke" transform=" translate(-5.02, -23.98)" d="M 3.717 25.283 C 3.2579093552477754 24.823910734194442 2.9999948006854322 24.2012512411054 2.9999948006854322 23.552 C 2.9999948006854322 22.902748758894603 3.257909355247775 22.28008926580556 3.7169999999999996 21.821 C 5.131352739789266 20.829165376579827 6.769564685263669 20.203497601263365 8.48499999999999 20 C 7.129 19.925 3.0759999999999996 21.3 1.9559999999999995 22.424 C 0.7129164019630185 23.703685586909067 0.727608831384102 25.744363744716715 1.9889895099183392 27.006017745174795 C 3.2503701884525764 28.267671745632875 5.291045115083282 28.282806310584718 6.571 27.04 C 7.692 25.923 9.071 21.87 9 20.515 C 8.797492767141746 22.230025462908575 8.17322842109682 23.868161072122778 7.183 25.283 C 6.723749100500923 25.74331536718174 6.100231978569472 26.002007518813343 5.45 26.002007518813343 C 4.799768021430529 26.002007518813343 4.1762508994990775 25.74331536718174 3.7170000000000005 25.283 Z" stroke-linecap="round" />
      </g>
      <g transform="matrix(0.71 -0.71 0.71 0.71 20.98 -1)">
        <ellipse style="stroke: none; stroke-width: 1; stroke-dasharray: none; stroke-linecap: butt; stroke-dashoffset: 0; stroke-linejoin: miter; stroke-miterlimit: 4; fill: rgb(246,250,253); fill-rule: nonzero; opacity: 1;" vector-effect="non-scaling-stroke" cx="0" cy="0" rx="0.825" ry="1.148" />
      </g>
      <g transform="matrix(0.71 -0.71 0.71 0.71 20.73 0.5)">
        <ellipse style="stroke: none; stroke-width: 1; stroke-dasharray: none; stroke-linecap: butt; stroke-dashoffset: 0; stroke-linejoin: miter; stroke-miterlimit: 4; fill: rgb(246,250,253); fill-rule: nonzero; opacity: 1;" vector-effect="non-scaling-stroke" cx="0" cy="0" rx="0.413" ry="0.574" />
      </g>
      <g transform="matrix(0.71 -0.71 0.71 0.71 -21.02 -1)">
        <ellipse style="stroke: none; stroke-width: 1; stroke-dasharray: none; stroke-linecap: butt; stroke-dashoffset: 0; stroke-linejoin: miter; stroke-miterlimit: 4; fill: rgb(246,250,253); fill-rule: nonzero; opacity: 1;" vector-effect="non-scaling-stroke" cx="0" cy="0" rx="1.148" ry="0.825" />
      </g>
      <g transform="matrix(0.71 -0.71 0.71 0.71 -20.76 0.5)">
        <ellipse style="stroke: none; stroke-width: 1; stroke-dasharray: none; stroke-linecap: butt; stroke-dashoffset: 0; stroke-linejoin: miter; stroke-miterlimit: 4; fill: rgb(246,250,253); fill-rule: nonzero; opacity: 1;" vector-effect="non-scaling-stroke" cx="0" cy="0" rx="0.574" ry="0.413" />
      </g>
      <g transform="matrix(1 0 0 1 18.17 2.03)">
        <path style="stroke: none; stroke-width: 1; stroke-dasharray: none; stroke-linecap: butt; stroke-dashoffset: 0; stroke-linejoin: miter; stroke-miterlimit: 4; fill: rgb(255,201,67); fill-rule: nonzero; opacity: 1;" vector-effect="non-scaling-stroke" transform=" translate(-42.18, -26.03)" d="M 41.429 27.044 C 40.35909553738058 25.554432962022563 39.60810068854704 23.86009870878388 39.223 22.067 C 39.18677844383578 22.079044052338695 39.15293723049901 22.097318307540547 39.123 22.121 C 38.546 22.698 40.156 27.77 41.431 29.043999999999997 C 42.234272401090195 29.845781981777048 43.39770845442502 30.170285488344206 44.5 29.9 C 44.84429019437394 29.140121032216584 45.13239603946921 28.35601858141205 45.362 27.553999999999995 C 44.08682292914316 28.2944929200289 42.4731358159914 28.085242874845225 41.429 27.044 Z" stroke-linecap="round" />
      </g>
      <g transform="matrix(1 0 0 1 21.69 3.82)">
        <path style="stroke: none; stroke-width: 1; stroke-dasharray: none; stroke-linecap: butt; stroke-dashoffset: 0; stroke-linejoin: miter; stroke-miterlimit: 4; fill: rgb(255,179,43); fill-rule: nonzero; opacity: 1;" vector-effect="non-scaling-stroke" transform=" translate(-45.7, -27.82)" d="M 46.829 25.736 C 46.59806482895803 26.511667253131257 46.07008972402219 27.164717468017862 45.36 27.553 C 45.13109208043415 28.355304477001372 44.84365453986083 29.139741579007868 44.5 29.9 C 45.39078308455256 29.695765392034204 46.15173876066355 29.120408661316137 46.591 28.319 Q 46.804 27.198999999999998 46.907000000000004 26.041999999999998 C 46.882 25.939 46.861 25.836 46.829 25.736 Z" stroke-linecap="round" />
      </g>
      <g transform="matrix(1 0 0 1 -18.19 2.03)">
        <path style="stroke: none; stroke-width: 1; stroke-dasharray: none; stroke-linecap: butt; stroke-dashoffset: 0; stroke-linejoin: miter; stroke-miterlimit: 4; fill: rgb(255,201,67); fill-rule: nonzero; opacity: 1;" vector-effect="non-scaling-stroke" transform=" translate(-5.82, -26.03)" d="M 6.571 29.044 C 7.846 27.77 9.456 22.7 8.879 22.121 C 8.849062769500984 22.097318307540547 8.815221556164225 22.079044052338695 8.779 22.067 C 8.393899311452957 23.86009870878388 7.642904462619417 25.55443296202256 6.573 27.043999999999997 C 5.528946934965516 28.083923502502813 3.9164864904243437 28.292710672757572 2.642000000000001 27.553 C 2.8702581817442523 28.355250382737246 3.157026838837849 29.139686324693745 3.4999999999999956 29.89999999999999 C 4.602918651248447 30.17103418115167 5.7673079751193566 29.846476297324415 6.571 29.044 Z" stroke-linecap="round" />
      </g>
      <g transform="matrix(1 0 0 1 -21.72 3.82)">
        <path style="stroke: none; stroke-width: 1; stroke-dasharray: none; stroke-linecap: butt; stroke-dashoffset: 0; stroke-linejoin: miter; stroke-miterlimit: 4; fill: rgb(255,179,43); fill-rule: nonzero; opacity: 1;" vector-effect="non-scaling-stroke" transform=" translate(-2.3, -27.82)" d="M 3.5 29.9 C 3.1557098056260617 29.14012103221658 2.8676039605307944 28.356018581412055 2.6380000000000017 27.553999999999995 C 1.9279102759778093 27.16571746801786 1.3999351710419679 26.512667253131255 1.1689999999999996 25.737 C 1.1369999999999998 25.837 1.1159999999999999 25.936999999999998 1.0929999999999997 26.037 Q 1.1929999999999998 27.194 1.4089999999999998 28.314 C 1.8471805499604876 29.11731453658304 2.608297810973138 29.694613425136875 3.5000000000000004 29.9 Z" stroke-linecap="round" />
      </g>
    </g>
  </g>
  <g transform="matrix(1 0 0 1 540 540)">
    <g style="" vector-effect="non-scaling-stroke">
      <g transform="matrix(1 0 0 1 0 0.1)">
        <path style="stroke: none; stroke-width: 1; stroke-dasharray: none; stroke-linecap: butt; stroke-dashoffset: 0; stroke-linejoin: miter; stroke-miterlimit: 4; fill: rgb(0,0,128); fill-rule: nonzero; opacity: 1;" vector-effect="non-scaling-stroke" transform=" translate(-473.5, -473.6)" d="M 835.5 473.6 C 835.5 273.8 673.3 111.60000000000002 473.5 111.60000000000002 C 273.70000000000005 111.60000000000002 111.5 273.8 111.5 473.6 C 111.5 673.4000000000001 273.7 835.6 473.5 835.6 C 673.3 835.6 835.5 673.4 835.5 473.6" stroke-linecap="round" />
      </g>
      <g transform="matrix(1 0 0 1 150 -149.9)">
        <path style="stroke: none; stroke-width: 1; stroke-dasharray: none; stroke-linecap: butt; stroke-dashoffset: 0; stroke-linejoin: miter; stroke-miterlimit: 4; fill: rgb(255,255,255); fill-rule: nonzero; opacity: 1;" vector-effect="non-scaling-stroke" transform=" translate(-623.5, -323.6)" d="M 729.5 323.6 C 729.5 265.1 682 217.60000000000002 623.5 217.60000000000002 C 565 217.60000000000002 517.5 265.1 517.5 323.6 C 517.5 382.1 565 429.6 623.5 429.6 C 682 429.6 729.5 382.1 729.5 323.6" stroke-linecap="round" />
      </g>
      <g transform="matrix(1 0 0 1 362 -362)">
        <path style="stroke: none; stroke-width: 1; stroke-dasharray: none; stroke-linecap: butt; stroke-dashoffset: 0; stroke-linejoin: miter; stroke-miterlimit: 4; fill: rgb(0,0,128); fill-rule: nonzero; opacity: 1;" vector-effect="non-scaling-stroke" transform=" translate(-835.5, -111.5)" d="M 941.5 111.5 C 941.5 53 894 5.5 835.5 5.5 C 777 5.5 729.5 53 729.5 111.5 C 729.5 170 777 217.5 835.5 217.5 C 894 217.5 941.5 170.1 941.5 111.5" stroke-linecap="round" />
      </g>
      <g transform="matrix(1 0 0 1 -171.9 62.25)">
        <path style="stroke: none; stroke-width: 1; stroke-dasharray: none; stroke-linecap: butt; stroke-dashoffset: 0; stroke-linejoin: miter; stroke-miterlimit: 4; fill: rgb(255,255,255); fill-rule: nonzero; opacity: 1;" vector-effect="non-scaling-stroke" transform=" translate(-301.6, -535.75)" d="M 258.1 627.8 L 375.40000000000003 627.8 L 375.40000000000003 654.5 L 227.8 654.5 L 227.8 417 L 258.1 417 L 258.1 627.8 z" stroke-linecap="round" />
      </g>
      <g transform="matrix(1 0 0 1 -1.5 99.4)">
        <path style="stroke: none; stroke-width: 1; stroke-dasharray: none; stroke-linecap: butt; stroke-dashoffset: 0; stroke-linejoin: miter; stroke-miterlimit: 4; fill: rgb(255,255,255); fill-rule: nonzero; opacity: 1;" vector-effect="non-scaling-stroke" transform=" translate(-472, -572.9)" d="M 515.5 654.5 L 515.5 630.7 C 499.5 653.2 483.6 662 458.5 662 C 425.3 662 404.1 643.8 404.1 615.4 L 404.1 483.8 L 431.1 483.8 L 431.1 604.7 C 431.1 625.2 444.8 638.3000000000001 466.3 638.3000000000001 C 494.6 638.3000000000001 512.9 615.5000000000001 512.9 580.6 L 512.9 483.8 L 539.9 483.8 L 539.9 654.5 L 515.5 654.5 z" stroke-linecap="round" />
      </g>
      <g transform="matrix(1 0 0 1 184.6 96.95)">
        <path style="stroke: none; stroke-width: 1; stroke-dasharray: none; stroke-linecap: butt; stroke-dashoffset: 0; stroke-linejoin: miter; stroke-miterlimit: 4; fill: rgb(255,255,255); fill-rule: nonzero; opacity: 1;" vector-effect="non-scaling-stroke" transform=" translate(-658.1, -570.45)" d="M 738.4 659.1 C 729.6 661.4 725.4 662 719.8 662 C 702.1999999999999 662 693.6999999999999 654.2 691.8 636.9 C 672.5999999999999 654.5 655.3 662 633.8 662 C 599.3 662 577.8 642.5 577.8 611.5 C 577.8 589.3 587.9 574 607.8 565.9 C 618.1999999999999 561.6999999999999 624.0999999999999 560.4 662.5 555.5 C 684 552.9 690.8 548 690.8 536.6 L 690.8 529.4 C 690.8 513.1 677.0999999999999 504 652.6999999999999 504 C 627.3 504 614.9 513.4 612.5999999999999 534.3 L 585.1999999999999 534.3 C 585.9 517.4 589.0999999999999 507.59999999999997 596.9 498.79999999999995 C 608.3 486.09999999999997 628.8 478.9 653.6 478.9 C 695.6 478.9 717.8000000000001 495.2 717.8000000000001 525.5 L 717.8000000000001 625.9 C 717.8000000000001 634.4 723.0000000000001 639.3 732.5000000000001 639.3 C 734.1000000000001 639.3 735.4000000000001 639.3 738.4000000000001 638.5999999999999 L 738.4000000000001 659.1 z M 690.8 570.1 C 681.6999999999999 574.3000000000001 675.8 575.6 647.0999999999999 579.5 C 618.0999999999999 583.7 605.9999999999999 592.9 605.9999999999999 610.8 C 605.9999999999999 628.0999999999999 618.3999999999999 638.1999999999999 639.5999999999999 638.1999999999999 C 655.5999999999999 638.1999999999999 668.8999999999999 632.9999999999999 679.9999999999999 622.9 C 688.0999999999999 615.4 690.7999999999998 609.9 690.7999999999998 600.6999999999999 L 690.7999999999998 570.1 z" stroke-linecap="round" />
      </g>
      <g transform="matrix(1 0 0 1 0 0)">
        <path style="stroke: rgb(128,128,128); stroke-width: 10.8612; stroke-dasharray: 40.8475 40.8475; stroke-linecap: butt; stroke-dashoffset: 0; stroke-linejoin: miter; stroke-miterlimit: 10; fill: none; fill-rule: nonzero; opacity: 1;" vector-effect="non-scaling-stroke" transform=" translate(-473.5, -473.5)" d="M 890.6 261 C 924.1 326.8 941.6 399.6 941.6 473.5 C 941.6 731.9 731.9000000000001 941.6 473.5 941.6 C 215.0999999999999 941.6 5.4 731.9 5.4 473.5 C 5.4 215.1 215.1 5.4 473.5 5.4 C 556.6 5.4 638.1 27.5 709.7 69.3" stroke-linecap="round" />
      </g>
    </g>
  </g>
  <g transform="matrix(15.24 0 0 15.24 540 540)">
    <g style="" vector-effect="non-scaling-stroke">
      <g transform="matrix(1 0 0 1 -0.02 0)">
        <circle style="stroke: none; stroke-width: 1; stroke-dasharray: none; stroke-linecap: butt; stroke-dashoffset: 0; stroke-linejoin: miter; stroke-miterlimit: 4; fill: rgb(255,206,82); fill-rule: nonzero; opacity: 1;" vector-effect="non-scaling-stroke" cx="0" cy="0" r="23" />
      </g>
      <g transform="matrix(1 0 0 1 9.71 -6.55)">
        <path style="stroke: none; stroke-width: 1; stroke-dasharray: none; stroke-linecap: butt; stroke-dashoffset: 0; stroke-linejoin: miter; stroke-miterlimit: 4; fill: rgb(39,57,65); fill-rule: nonzero; opacity: 1;" vector-effect="non-scaling-stroke" transform=" translate(-33.72, -17.45)" d="M 37.553 20.9 C 35.764 20 33.717 20 30 20 C 29.447715250169207 20 29 19.552284749830793 29 19 C 29 16.735 32.568 14 37 14 L 37 16 C 35.004399764676755 15.94933150935682 33.06520190799503 16.66503472274738 31.581 18 C 34.638999999999996 18.018 36.544 18.151 38.447 19.1 Z" stroke-linecap="round" />
      </g>
      <g transform="matrix(1 0 0 1 -9.74 -6.55)">
        <path style="stroke: none; stroke-width: 1; stroke-dasharray: none; stroke-linecap: butt; stroke-dashoffset: 0; stroke-linejoin: miter; stroke-miterlimit: 4; fill: rgb(39,57,65); fill-rule: nonzero; opacity: 1;" vector-effect="non-scaling-stroke" transform=" translate(-14.28, -17.45)" d="M 10.447 20.9 L 9.552999999999999 19.11 C 11.453 18.159 13.360999999999999 18.026 16.418999999999997 18.009999999999998 C 14.936328710390976 16.67140784356308 12.99695896218471 15.952062356592313 11 16 L 11 14 C 15.432 14 19 16.735 19 19 C 19 19.552284749830793 18.552284749830793 20 18 20 C 14.283 20 12.236 20 10.447 20.9 Z" stroke-linecap="round" />
      </g>
      <g transform="matrix(1 0 0 1 -0.02 8.5)">
        <path style="stroke: none; stroke-width: 1; stroke-dasharray: none; stroke-linecap: butt; stroke-dashoffset: 0; stroke-linejoin: miter; stroke-miterlimit: 4; fill: rgb(174,45,76); fill-rule: nonzero; opacity: 1;" vector-effect="non-scaling-stroke" transform=" translate(-24, -32.5)" d="M 35.2 26 L 38 26 C 38 34.36 31.47 39 24 39 C 20.437561415426067 39.08198430434516 16.962694882596406 37.89060149308928 14.199999999999996 35.64 C 11.425809717642663 33.21865710560827 9.88426281304892 29.68043992458835 10 26.000000000000007 L 12.8 26 C 12.8 29.87 17.810000000000002 33 24 33 C 30.189999999999998 33 35.2 29.87 35.2 26 Z" stroke-linecap="round" />
      </g>
      <g transform="matrix(1 0 0 1 -0.02 5.5)">
        <path style="stroke: none; stroke-width: 1; stroke-dasharray: none; stroke-linecap: butt; stroke-dashoffset: 0; stroke-linejoin: miter; stroke-miterlimit: 4; fill: rgb(246,250,253); fill-rule: nonzero; opacity: 1;" vector-effect="non-scaling-stroke" transform=" translate(-24, -29.5)" d="M 12.8 26 L 35.2 26 C 35.2 29.87 30.190000000000005 33 24.000000000000004 33 C 17.810000000000002 33 12.8 29.87 12.8 26 Z" stroke-linecap="round" />
      </g>
      <g transform="matrix(1 0 0 1 -0.02 -11.96)">
        <path style="stroke: none; stroke-width: 1; stroke-dasharray: none; stroke-linecap: butt; stroke-dashoffset: 0; stroke-linejoin: miter; stroke-miterlimit: 4; fill: rgb(255,227,105); fill-rule: nonzero; opacity: 1;" vector-effect="non-scaling-stroke" transform=" translate(-24, -12.04)" d="M 24 4 C 36.15 4 46 12.507 46 23 L 46.975 23 C 46.4023312868921 10.727639518870866 36.28571451864941 1.072089082119554 24 1.072089082119554 C 11.714285481350593 1.072089082119554 1.5976687131079004 10.727639518870872 1.0249999999999986 23.000000000000004 L 2 23 C 2 12.507 11.85 4 24 4 Z" stroke-linecap="round" />
      </g>
      <g transform="matrix(1 0 0 1 -0.02 11)">
        <path style="stroke: none; stroke-width: 1; stroke-dasharray: none; stroke-linecap: butt; stroke-dashoffset: 0; stroke-linejoin: miter; stroke-miterlimit: 4; fill: rgb(255,179,43); fill-rule: nonzero; opacity: 1;" vector-effect="non-scaling-stroke" transform=" translate(-24, -35)" d="M 46 23 C 46 33.493 36.15 42 24 42 C 11.850000000000001 42 2 33.493 2 23 L 1.025 23 C 1.011 23.332 0.9999999999999999 23.665 0.9999999999999999 24 C 0.9999999999999999 36.70254924610825 11.29745075389175 47 24 47 C 36.70254924610825 47 47 36.70254924610825 47 24 C 47 23.665 46.989 23.332 46.975 23 Z" stroke-linecap="round" />
      </g>
      <g transform="matrix(0.71 -0.71 0.71 0.71 12.98 -15)">
        <ellipse style="stroke: none; stroke-width: 1; stroke-dasharray: none; stroke-linecap: butt; stroke-dashoffset: 0; stroke-linejoin: miter; stroke-miterlimit: 4; fill: rgb(246,250,253); fill-rule: nonzero; opacity: 1;" vector-effect="non-scaling-stroke" cx="0" cy="0" rx="0.825" ry="1.148" />
      </g>
      <g transform="matrix(0.71 -0.71 0.71 0.71 6.73 -19.5)">
        <ellipse style="stroke: none; stroke-width: 1; stroke-dasharray: none; stroke-linecap: butt; stroke-dashoffset: 0; stroke-linejoin: miter; stroke-miterlimit: 4; fill: rgb(246,250,253); fill-rule: nonzero; opacity: 1;" vector-effect="non-scaling-stroke" cx="0" cy="0" rx="0.413" ry="0.574" />
      </g>
      <g transform="matrix(0.71 -0.71 0.71 0.71 9.98 -17)">
        <ellipse style="stroke: none; stroke-width: 1; stroke-dasharray: none; stroke-linecap: butt; stroke-dashoffset: 0; stroke-linejoin: miter; stroke-miterlimit: 4; fill: rgb(246,250,253); fill-rule: nonzero; opacity: 1;" vector-effect="non-scaling-stroke" cx="0" cy="0" rx="1.65" ry="2.297" />
      </g>
      <g transform="matrix(1 0 0 1 -0.02 6.5)">
        <path style="stroke: none; stroke-width: 1; stroke-dasharray: none; stroke-linecap: butt; stroke-dashoffset: 0; stroke-linejoin: miter; stroke-miterlimit: 4; fill: rgb(138,41,61); fill-rule: nonzero; opacity: 1;" vector-effect="non-scaling-stroke" transform=" translate(-24, -30.5)" d="M 35.2 26 C 35.2 29.87 30.190000000000005 33 24.000000000000004 33 C 17.810000000000002 33 12.800000000000004 29.87 12.800000000000004 26 L 12 26 C 12 30.976 17.368000000000002 35 24 35 C 30.631999999999998 35 36 30.976 36 26 Z" stroke-linecap="round" />
      </g>
      <g transform="matrix(1 0 0 1 -0.02 3)">
        <path style="stroke: none; stroke-width: 1; stroke-dasharray: none; stroke-linecap: butt; stroke-dashoffset: 0; stroke-linejoin: miter; stroke-miterlimit: 4; fill: rgb(237,237,237); fill-rule: nonzero; opacity: 1;" vector-effect="non-scaling-stroke" transform=" translate(-24, -27)" d="M 35.2 26 L 12.8 26 C 12.8043279002083 26.6934073566443 12.96461980087275 27.376954907452195 13.269000000000002 28.000000000000004 L 34.731 28 C 35.03538019912725 27.376954907452195 35.19567209979171 26.6934073566443 35.2 26 Z" stroke-linecap="round" />
      </g>
      <g transform="matrix(1 0 0 1 18.98 0)">
        <path style="stroke: none; stroke-width: 1; stroke-dasharray: none; stroke-linecap: butt; stroke-dashoffset: 0; stroke-linejoin: miter; stroke-miterlimit: 4; fill: rgb(59,197,246); fill-rule: nonzero; opacity: 1;" vector-effect="non-scaling-stroke" transform=" translate(-43, -24)" d="M 46.044 22.429 C 47.31839706023455 23.703397060234554 47.31839706023455 25.76960293976544 46.044 27.043999999999997 C 44.76960293976544 28.318397060234552 42.70339706023456 28.318397060234556 41.429 27.044 C 40.153999999999996 25.769999999999996 38.544 20.697999999999997 39.120999999999995 20.120999999999995 C 39.69799999999999 19.543999999999993 44.77 21.154 46.044 22.429 Z" stroke-linecap="round" />
      </g>
      <g transform="matrix(1 0 0 1 -19.02 0)">
        <path style="stroke: none; stroke-width: 1; stroke-dasharray: none; stroke-linecap: butt; stroke-dashoffset: 0; stroke-linejoin: miter; stroke-miterlimit: 4; fill: rgb(59,197,246); fill-rule: nonzero; opacity: 1;" vector-effect="non-scaling-stroke" transform=" translate(-5, -24)" d="M 1.956 22.429 C 0.6816029397654453 23.703397060234554 0.681602939765446 25.769602939765445 1.9560000000000022 27.043999999999997 C 3.2303970602345586 28.318397060234552 5.296602939765446 28.318397060234552 6.571 27.043999999999997 C 7.846 25.77 9.456 20.7 8.879 20.121 C 8.302 19.541999999999998 3.23 21.154 1.956 22.429 Z" stroke-linecap="round" />
      </g>
      <g transform="matrix(1 0 0 1 19 0.02)">
        <path style="stroke: none; stroke-width: 1; stroke-dasharray: none; stroke-linecap: butt; stroke-dashoffset: 0; stroke-linejoin: miter; stroke-miterlimit: 4; fill: rgb(0,163,225); fill-rule: nonzero; opacity: 1;" vector-effect="non-scaling-stroke" transform=" translate(-43.01, -24.02)" d="M 46.044 22.428 C 44.924 21.308 40.870999999999995 19.928 39.515 20.004 C 41.23007544361674 20.20630368428274 42.86825923212535 20.83058639059988 44.283 21.820999999999998 C 45.2390049019571 22.777004901957106 45.2390049019571 24.3269950980429 44.283 25.283 C 43.32699509804289 26.239004901957106 41.7770049019571 26.239004901957106 40.821 25.283 C 39.82935059865848 23.868548900130133 39.203701234965024 22.23038516257364 39 20.515 C 38.925 21.87 40.3 25.923000000000002 41.425 27.044 C 42.24544121362913 27.88859870409787 43.45719117143098 28.225833204945886 44.59599311466828 27.926499127260143 C 45.734795057905586 27.627165049574405 46.624098801461024 26.73766860748299 46.9231861378713 25.59880183687984 C 47.222273474281565 24.459935066276692 46.88477644209117 23.24825820256357 46.04 22.428 Z" stroke-linecap="round" />
      </g>
      <g transform="matrix(1 0 0 1 -19 -0.02)">
        <path style="stroke: none; stroke-width: 1; stroke-dasharray: none; stroke-linecap: butt; stroke-dashoffset: 0; stroke-linejoin: miter; stroke-miterlimit: 4; fill: rgb(0,163,225); fill-rule: nonzero; opacity: 1;" vector-effect="non-scaling-stroke" transform=" translate(-5.02, -23.98)" d="M 3.717 25.283 C 3.2579093552477754 24.823910734194442 2.9999948006854322 24.2012512411054 2.9999948006854322 23.552 C 2.9999948006854322 22.902748758894603 3.257909355247775 22.28008926580556 3.7169999999999996 21.821 C 5.131352739789266 20.829165376579827 6.769564685263669 20.203497601263365 8.48499999999999 20 C 7.129 19.925 3.0759999999999996 21.3 1.9559999999999995 22.424 C 0.7129164019630185 23.703685586909067 0.727608831384102 25.744363744716715 1.9889895099183392 27.006017745174795 C 3.2503701884525764 28.267671745632875 5.291045115083282 28.282806310584718 6.571 27.04 C 7.692 25.923 9.071 21.87 9 20.515 C 8.797492767141746 22.230025462908575 8.17322842109682 23.868161072122778 7.183 25.283 C 6.723749100500923 25.74331536718174 6.100231978569472 26.002007518813343 5.45 26.002007518813343 C 4.799768021430529 26.002007518813343 4.1762508994990775 25.74331536718174 3.7170000000000005 25.283 Z" stroke-linecap="round" />
      </g>
      <g transform="matrix(0.71 -0.71 0.71 0.71 20.98 -1)">
        <ellipse style="stroke: none; stroke-width: 1; stroke-dasharray: none; stroke-linecap: butt; stroke-dashoffset: 0; stroke-linejoin: miter; stroke-miterlimit: 4; fill: rgb(246,250,253); fill-rule: nonzero; opacity: 1;" vector-effect="non-scaling-stroke" cx="0" cy="0" rx="0.825" ry="1.148" />
      </g>
      <g transform="matrix(0.71 -0.71 0.71 0.71 20.73 0.5)">
        <ellipse style="stroke: none; stroke-width: 1; stroke-dasharray: none; stroke-linecap: butt; stroke-dashoffset: 0; stroke-linejoin: miter; stroke-miterlimit: 4; fill: rgb(246,250,253); fill-rule: nonzero; opacity: 1;" vector-effect="non-scaling-stroke" cx="0" cy="0" rx="0.413" ry="0.574" />
      </g>
      <g transform="matrix(0.71 -0.71 0.71 0.71 -21.02 -1)">
        <ellipse style="stroke: none; stroke-width: 1; stroke-dasharray: none; stroke-linecap: butt; stroke-dashoffset: 0; stroke-linejoin: miter; stroke-miterlimit: 4; fill: rgb(246,250,253); fill-rule: nonzero; opacity: 1;" vector-effect="non-scaling-stroke" cx="0" cy="0" rx="1.148" ry="0.825" />
      </g>
      <g transform="matrix(0.71 -0.71 0.71 0.71 -20.76 0.5)">
        <ellipse style="stroke: none; stroke-width: 1; stroke-dasharray: none; stroke-linecap: butt; stroke-dashoffset: 0; stroke-linejoin: miter; stroke-miterlimit: 4; fill: rgb(246,250,253); fill-rule: nonzero; opacity: 1;" vector-effect="non-scaling-stroke" cx="0" cy="0" rx="0.574" ry="0.413" />
      </g>
      <g transform="matrix(1 0 0 1 18.17 2.03)">
        <path style="stroke: none; stroke-width: 1; stroke-dasharray: none; stroke-linecap: butt; stroke-dashoffset: 0; stroke-linejoin: miter; stroke-miterlimit: 4; fill: rgb(255,201,67); fill-rule: nonzero; opacity: 1;" vector-effect="non-scaling-stroke" transform=" translate(-42.18, -26.03)" d="M 41.429 27.044 C 40.35909553738058 25.554432962022563 39.60810068854704 23.86009870878388 39.223 22.067 C 39.18677844383578 22.079044052338695 39.15293723049901 22.097318307540547 39.123 22.121 C 38.546 22.698 40.156 27.77 41.431 29.043999999999997 C 42.234272401090195 29.845781981777048 43.39770845442502 30.170285488344206 44.5 29.9 C 44.84429019437394 29.140121032216584 45.13239603946921 28.35601858141205 45.362 27.553999999999995 C 44.08682292914316 28.2944929200289 42.4731358159914 28.085242874845225 41.429 27.044 Z" stroke-linecap="round" />
      </g>
      <g transform="matrix(1 0 0 1 21.69 3.82)">
        <path style="stroke: none; stroke-width: 1; stroke-dasharray: none; stroke-linecap: butt; stroke-dashoffset: 0; stroke-linejoin: miter; stroke-miterlimit: 4; fill: rgb(255,179,43); fill-rule: nonzero; opacity: 1;" vector-effect="non-scaling-stroke" transform=" translate(-45.7, -27.82)" d="M 46.829 25.736 C 46.59806482895803 26.511667253131257 46.07008972402219 27.164717468017862 45.36 27.553 C 45.13109208043415 28.355304477001372 44.84365453986083 29.139741579007868 44.5 29.9 C 45.39078308455256 29.695765392034204 46.15173876066355 29.120408661316137 46.591 28.319 Q 46.804 27.198999999999998 46.907000000000004 26.041999999999998 C 46.882 25.939 46.861 25.836 46.829 25.736 Z" stroke-linecap="round" />
      </g>
      <g transform="matrix(1 0 0 1 -18.19 2.03)">
        <path style="stroke: none; stroke-width: 1; stroke-dasharray: none; stroke-linecap: butt; stroke-dashoffset: 0; stroke-linejoin: miter; stroke-miterlimit: 4; fill: rgb(255,201,67); fill-rule: nonzero; opacity: 1;" vector-effect="non-scaling-stroke" transform=" translate(-5.82, -26.03)" d="M 6.571 29.044 C 7.846 27.77 9.456 22.7 8.879 22.121 C 8.849062769500984 22.097318307540547 8.815221556164225 22.079044052338695 8.779 22.067 C 8.393899311452957 23.86009870878388 7.642904462619417 25.55443296202256 6.573 27.043999999999997 C 5.528946934965516 28.083923502502813 3.9164864904243437 28.292710672757572 2.642000000000001 27.553 C 2.8702581817442523 28.355250382737246 3.157026838837849 29.139686324693745 3.4999999999999956 29.89999999999999 C 4.602918651248447 30.17103418115167 5.7673079751193566 29.846476297324415 6.571 29.044 Z" stroke-linecap="round" />
      </g>
      <g transform="matrix(1 0 0 1 -21.72 3.82)">
        <path style="stroke: none; stroke-width: 1; stroke-dasharray: none; stroke-linecap: butt; stroke-dashoffset: 0; stroke-linejoin: miter; stroke-miterlimit: 4; fill: rgb(255,179,43); fill-rule: nonzero; opacity: 1;" vector-effect="non-scaling-stroke" transform=" translate(-2.3, -27.82)" d="M 3.5 29.9 C 3.1557098056260617 29.14012103221658 2.8676039605307944 28.356018581412055 2.6380000000000017 27.553999999999995 C 1.9279102759778093 27.16571746801786 1.3999351710419679 26.512667253131255 1.1689999999999996 25.737 C 1.1369999999999998 25.837 1.1159999999999999 25.936999999999998 1.0929999999999997 26.037 Q 1.1929999999999998 27.194 1.4089999999999998 28.314 C 1.8471805499604876 29.11731453658304 2.608297810973138 29.694613425136875 3.5000000000000004 29.9 Z" stroke-linecap="round" />
      </g>
    </g>
  </g>
</svg>
